<svg xmlns="http://www.w3.org/2000/svg" width="24" height="14.25" viewBox="0 0 24 14.25">
  <g id="Group_1032" data-name="Group 1032" transform="translate(0 -13)">
    <path id="Path_2789" data-name="Path 2789" d="M23.91,19.887C22.915,18.723,17.486,13,12,13S1.082,18.741.089,19.9a.369.369,0,0,0,0,.481C1.082,21.544,6.512,27.25,12,27.25s10.915-5.715,11.91-6.879A.37.37,0,0,0,23.91,19.887ZM12,24.625a4.5,4.5,0,1,1,4.5-4.5A4.5,4.5,0,0,1,12,24.625Z" transform="translate(0)" fill="#3f4d59"/>
    <ellipse id="Ellipse_43" data-name="Ellipse 43" cx="3" cy="2.571" rx="3" ry="2.571" transform="translate(8.64 17.554)" fill="#3f4d59"/>
  </g>
</svg>
