<svg width="901" height="341" viewBox="0 0 901 341" fill="none" xmlns="http://www.w3.org/2000/svg">
<path d="M0.00012207 141V311.111C57 341.5 54.3751 251.389 81.8751 237.083C109.063 222.222 136.25 266.667 163.75 296.25C190.938 326.389 218.125 340.278 245.625 311.111C272.75 281.944 300 206.944 327.5 222.222C354.563 237.5 381.875 310.861 409.375 333.5C436.375 355.306 463.75 326.389 490.625 281.528C518.188 237.5 545.625 206.944 572.5 207.361C600 206.944 627.5 237.5 654.375 251.806C681.813 266.667 709.375 266.667 736.25 281.528C763.625 295.833 913.625 370.528 900 281.528C900 244.444 900 147 900 78.5V0H886.375C872.75 0 845.625 0 818.125 0C790.938 0 763.75 0 736.25 0C709.063 0 681.875 0 654.375 0C627.25 0 600 0 572.5 0C545.438 0 518.125 0 490.625 0C463.625 0 436.25 0 409.375 0C381.813 0 354.375 0 327.5 0C300 0 272.5 0 245.625 0C218.188 0 190.625 0 163.75 0C136.375 0 109.375 0 81.8751 0C54.5626 0 27.5001 0 13.7501 0H0.00012207V141Z" fill="#256489"/>
</svg>
